# xmcd
#
# Track frame offsets: 
#        150
#        14505
#        33880
#        52305
#        69095
#        85885
#        101560
#        120820
#        138955
#        149555
#
# Disc length: 2201 seconds
#
# Revision: 0
# Processed by: cddbd v1.5.2PL0 Copyright (c) Steve Scherf et al.
# Submitted via: ExactAudioCopy v1.0b4
#
DISCID=8208970a
DTITLE=Steve Guyger - Finland Sessions
DYEAR=2008
DGENRE=Blues
TTITLE0=You're The One
TTITLE1=Forty Four Blues
TTITLE2=If It Ain't Me
TTITLE3=Mighty Long Time
TTITLE4=Do It If You Wanna (Electric)
TTITLE5=Do It If You Wanna (Acoustic)
TTITLE6=Springtime Blues
TTITLE7=Red Hot Kisses
TTITLE8=Chuck-a-luck
TTITLE9=Let Your Daddy Hang Around
EXTD=
EXTT0=
EXTT1=
EXTT2=
EXTT3=
EXTT4=
EXTT5=
EXTT6=
EXTT7=
EXTT8=
EXTT9=
PLAYORDER=
